<?xml version="1.0" encoding="UTF-8"?>
<!DOCTYPE svg PUBLIC "-//W3C//DTD SVG 1.1//EN" "http://www.w3.org/Graphics/SVG/1.1/DTD/svg11.dtd">
<!-- Creator: CorelDRAW 2020 (64-Bit) -->
<svg xmlns="http://www.w3.org/2000/svg" xml:space="preserve" width="59px" height="59px" version="1.1" style="shape-rendering:geometricPrecision; text-rendering:geometricPrecision; image-rendering:optimizeQuality; fill-rule:evenodd; clip-rule:evenodd"
viewBox="0 0 0.59 0.59"
 xmlns:xlink="http://www.w3.org/1999/xlink"
 xmlns:xodm="http://www.corel.com/coreldraw/odm/2003">
 <defs>
  <style type="text/css">
   <![CDATA[
    .fil1 {fill:none;fill-rule:nonzero}
    .fil0 {fill:#C5C6C6}
    .fil2 {fill:#FEFEFE;fill-rule:nonzero}
   ]]>
  </style>
 </defs>
 <g id="Plan_x0020_1">
  <metadata id="CorelCorpID_0Corel-Layer"/>
  <rect class="fil0" width="0.59" height="0.59" rx="0.06" ry="0.06"/>
  <g id="_2496006242608">
   <polygon class="fil1" points="0.56,0.56 0.04,0.56 0.04,0.04 0.56,0.04 "/>
  </g>
  <g id="_2496006240976">
   <path class="fil2" d="M0.45 0.31l0.05 -0.11c0.01,-0.01 0.01,-0.01 0,-0.02l-0.08 -0.08c0,-0.01 -0.01,-0.01 -0.02,0l-0.11 0.05c0,0 0,0 0,0 -0.02,0.03 -0.03,0.05 -0.03,0.08 0,0.03 0.01,0.06 0.03,0.08 0.02,0.03 0.05,0.04 0.08,0.04 0.03,0 0.06,-0.01 0.08,-0.04 0,0 0,0 0,0zm-0.05 -0.17l0 0 0.07 0.06 -0.04 0.07 -0.1 -0.1 0.07 -0.03zm-0.09 0.15l0 0c-0.01,-0.02 -0.02,-0.04 -0.02,-0.06 0,-0.01 0.01,-0.02 0.01,-0.03l0.11 0.1c-0.03,0.01 -0.07,0.01 -0.1,-0.01z"/>
   <path class="fil2" d="M0.24 0.27c0,-0.01 -0.01,-0.02 -0.02,-0.02l-0.06 0c-0.04,0 -0.07,0.04 -0.07,0.08l0 0.11c0,0.01 0,0.02 0.01,0.02l0.05 0c0,0.02 0.02,0.04 0.05,0.04 0.02,0 0.04,-0.02 0.05,-0.04l0.07 0c0,0.02 0.02,0.04 0.05,0.04 0.02,0 0.04,-0.02 0.05,-0.04l0.02 0c0.01,0 0.02,-0.01 0.02,-0.02l0 -0.07c0,-0.01 -0.01,-0.02 -0.02,-0.02l-0.2 0 0 -0.08zm-0.12 0.06l0 0c0,-0.02 0.02,-0.04 0.04,-0.04l0.04 0 0 0.09c-0.03,0 -0.05,0.02 -0.05,0.04l-0.03 0 0 -0.09zm0.08 0.13l0 0c-0.01,0 -0.02,-0.01 -0.02,-0.02 0,-0.01 0.01,-0.02 0.02,-0.02 0.01,0 0.02,0.01 0.02,0.02 0,0.01 -0.01,0.02 -0.02,0.02zm0.17 0l0 0c-0.01,0 -0.02,-0.01 -0.02,-0.02 0,-0.01 0.01,-0.02 0.02,-0.02 0.01,0 0.02,0.01 0.02,0.02 0,0.01 -0.01,0.02 -0.02,0.02zm0.05 -0.08l0 0 0 0.04 0 0c-0.01,-0.02 -0.03,-0.04 -0.05,-0.04 -0.03,0 -0.05,0.02 -0.05,0.04l-0.07 0c0,-0.01 -0.01,-0.01 -0.01,-0.02l0 -0.02 0.18 0z"/>
   <polygon class="fil2" points="0.18,0.31 0.14,0.31 0.14,0.35 0.18,0.35 "/>
  </g>
 </g>
</svg>
