<?xml version="1.0" encoding="UTF-8"?>
<!DOCTYPE svg PUBLIC "-//W3C//DTD SVG 1.1//EN" "http://www.w3.org/Graphics/SVG/1.1/DTD/svg11.dtd">
<!-- Creator: CorelDRAW 2020 (64-Bit) -->
<svg xmlns="http://www.w3.org/2000/svg" xml:space="preserve" width="59px" height="59px" version="1.1" style="shape-rendering:geometricPrecision; text-rendering:geometricPrecision; image-rendering:optimizeQuality; fill-rule:evenodd; clip-rule:evenodd"
viewBox="0 0 0.59 0.59"
 xmlns:xlink="http://www.w3.org/1999/xlink"
 xmlns:xodm="http://www.corel.com/coreldraw/odm/2003">
 <defs>
  <style type="text/css">
   <![CDATA[
    .fil0 {fill:#C5C6C6}
    .fil1 {fill:#FEFEFE;fill-rule:nonzero}
   ]]>
  </style>
 </defs>
 <g id="Plan_x0020_1">
  <metadata id="CorelCorpID_0Corel-Layer"/>
  <rect class="fil0" width="0.59" height="0.59" rx="0.06" ry="0.06"/>
  <path class="fil1" d="M0.39 0.29l-0.05 -0.04 0 -0.07 0.04 0 0 0.05 0.03 0.03 -0.02 0.03zm-0.03 0.08l0 -0.04c0.05,0 0.09,-0.04 0.09,-0.09 0,-0.05 -0.04,-0.09 -0.09,-0.09 -0.02,0 -0.04,0.01 -0.06,0.02l-0.02 -0.03c0.02,-0.02 0.05,-0.03 0.08,-0.03 0.07,0 0.13,0.06 0.13,0.13 0,0.07 -0.06,0.13 -0.13,0.13zm-0.17 -0.15c-0.03,0 -0.05,-0.02 -0.05,-0.05 0,-0.03 0.02,-0.06 0.05,-0.06 0.03,0 0.06,0.03 0.06,0.06 0,0.03 -0.03,0.05 -0.06,0.05zm0 -0.07l0 0c-0.01,0 -0.01,0.01 -0.01,0.02 0,0.01 0,0.01 0.01,0.01 0.01,0 0.02,0 0.02,-0.01 0,-0.01 -0.01,-0.02 -0.02,-0.02zm0.04 0.33l-0.07 0c-0.01,0 -0.02,-0.01 -0.02,-0.02l0 -0.07 -0.02 0c-0.01,0 -0.02,-0.01 -0.02,-0.02l0 -0.06c0,-0.05 0.04,-0.09 0.09,-0.09 0.06,0 0.1,0.04 0.1,0.09l0 0.06c0,0.01 -0.01,0.02 -0.02,0.02l-0.02 0 0 0.07c0,0.01 -0.01,0.02 -0.02,0.02zm-0.05 -0.04l0 0 0.03 0 0 -0.07c0,-0.01 0.01,-0.02 0.02,-0.02l0.02 0 0 -0.04c0,-0.03 -0.03,-0.05 -0.06,-0.05 -0.03,0 -0.05,0.02 -0.05,0.05l0 0.04 0.02 0c0.01,0 0.02,0.01 0.02,0.02l0 0.07z"/>
 </g>
</svg>
