<?xml version="1.0" encoding="UTF-8"?>
<!DOCTYPE svg PUBLIC "-//W3C//DTD SVG 1.1//EN" "http://www.w3.org/Graphics/SVG/1.1/DTD/svg11.dtd">
<!-- Creator: CorelDRAW 2020 (64-Bit) -->
<svg xmlns="http://www.w3.org/2000/svg" xml:space="preserve" width="100px" height="100px" version="1.1" style="shape-rendering:geometricPrecision; text-rendering:geometricPrecision; image-rendering:optimizeQuality; fill-rule:evenodd; clip-rule:evenodd"
viewBox="0 0 3.65 3.65"
 xmlns:xlink="http://www.w3.org/1999/xlink"
 xmlns:xodm="http://www.corel.com/coreldraw/odm/2003">
 <defs>
  <style type="text/css">
   <![CDATA[
    .fil0 {fill:none;fill-rule:nonzero}
    .fil1 {fill:#008DD2;fill-rule:nonzero}
   ]]>
  </style>
 </defs>
 <g id="Plan_x0020_1">
  <metadata id="CorelCorpID_0Corel-Layer"/>
  <g id="_2094365075152">
   <g>
    <polygon class="fil0" points="3.65,3.65 0,3.65 0,0 3.65,0 "/>
   </g>
   <g>
    <g>
     <path class="fil1" d="M2.44 1.52c0,0.17 -0.14,0.31 -0.31,0.31 -0.17,0 -0.3,-0.14 -0.3,-0.31 0,-0.17 0.13,-0.3 0.3,-0.3 0.17,0 0.31,0.13 0.31,0.3z"/>
    </g>
    <path class="fil1" d="M0.72 1.23l0.21 0.12c-0.01,0.06 -0.02,0.12 -0.02,0.17 0,0.06 0.01,0.11 0.02,0.17l-0.21 0.12c-0.04,0.02 -0.06,0.06 -0.07,0.09 -0.01,0.03 -0.01,0.06 0,0.08l0.39 0 0.13 -0.08 0.02 -0.01c0.04,-0.04 0.07,-0.1 0.05,-0.16 -0.01,-0.07 -0.02,-0.14 -0.02,-0.21 0,-0.07 0.01,-0.14 0.02,-0.21 0.02,-0.06 -0.01,-0.13 -0.07,-0.17l-0.17 -0.09 0.15 -0.27 0.17 0.1c0.06,0.03 0.14,0.03 0.18,-0.02 0.11,-0.1 0.24,-0.17 0.37,-0.21 0.07,-0.02 0.11,-0.08 0.11,-0.15l0 -0.2 0.3 0 0 0.2c0,0.07 0.05,0.13 0.11,0.15 0.14,0.04 0.26,0.11 0.37,0.21 0.05,0.05 0.12,0.05 0.18,0.02l0.17 -0.1 0.15 0.27 -0.17 0.09c-0.06,0.04 -0.09,0.11 -0.07,0.17 0.02,0.07 0.03,0.14 0.03,0.21 0,0.07 -0.01,0.14 -0.03,0.21 -0.02,0.07 0.01,0.14 0.07,0.17l0.17 0.1 -0.15 0.26 -0.17 -0.1c-0.06,-0.03 -0.13,-0.02 -0.18,0.03 -0.01,0 -0.01,0.01 -0.02,0.01l0 0.24 0.62 0 0.24 -0.42c0.02,-0.03 0.03,-0.08 0.02,-0.12 -0.01,-0.03 -0.04,-0.07 -0.07,-0.09l-0.21 -0.12c0.01,-0.06 0.01,-0.11 0.01,-0.17 0,-0.05 0,-0.11 -0.01,-0.17l0.21 -0.12c0.03,-0.02 0.06,-0.05 0.07,-0.09 0.01,-0.04 0,-0.08 -0.02,-0.11l-0.3 -0.53c-0.04,-0.08 -0.14,-0.1 -0.21,-0.06l-0.21 0.12c-0.09,-0.07 -0.19,-0.12 -0.29,-0.17l0 -0.24c0,-0.08 -0.07,-0.15 -0.15,-0.15l-0.61 0c-0.09,0 -0.15,0.07 -0.15,0.15l0 0.24c-0.11,0.05 -0.21,0.1 -0.3,0.17l-0.21 -0.12c-0.03,-0.02 -0.07,-0.02 -0.11,-0.01 -0.04,0.01 -0.07,0.03 -0.09,0.07l-0.31 0.52c-0.04,0.08 -0.02,0.17 0.06,0.21z"/>
    <path class="fil1" d="M3.18 2.67c-0.02,-0.05 -0.08,-0.08 -0.13,-0.08l-1.16 0 0.05 -0.05c0.04,-0.04 0.05,-0.11 0.02,-0.17l-0.15 -0.31c-0.03,-0.06 -0.11,-0.1 -0.18,-0.07l-0.73 0.24c-0.02,-0.06 -0.07,-0.1 -0.14,-0.1l-0.61 0c-0.08,0 -0.15,0.07 -0.15,0.15l0 1.22c0,0.09 0.07,0.15 0.15,0.15l0.61 0c0.09,0 0.15,-0.06 0.15,-0.15l1.68 0c0.05,0 0.09,-0.02 0.12,-0.06l0.46 -0.61c0.03,-0.04 0.04,-0.11 0.01,-0.16zm-2.88 0.68l0 0 0 -0.91 0.31 0 0 0.91 -0.31 0zm2.21 -0.15l0 0 -1.6 0 0 -0.65 0.69 -0.23 0.04 0.09 -0.22 0.22c-0.03,0.03 -0.05,0.07 -0.05,0.11l0 0 0 0.15 1.37 0 -0.23 0.31z"/>
   </g>
  </g>
 </g>
</svg>
