<?xml version="1.0" encoding="UTF-8"?>
<!DOCTYPE svg PUBLIC "-//W3C//DTD SVG 1.1//EN" "http://www.w3.org/Graphics/SVG/1.1/DTD/svg11.dtd">
<!-- Creator: CorelDRAW 2020 (64-Bit) -->
<svg xmlns="http://www.w3.org/2000/svg" xml:space="preserve" width="100px" height="100px" version="1.1" style="shape-rendering:geometricPrecision; text-rendering:geometricPrecision; image-rendering:optimizeQuality; fill-rule:evenodd; clip-rule:evenodd"
viewBox="0 0 1.22 1.22"
 xmlns:xlink="http://www.w3.org/1999/xlink"
 xmlns:xodm="http://www.corel.com/coreldraw/odm/2003">
 <defs>
  <style type="text/css">
   <![CDATA[
    .fil0 {fill:none;fill-rule:nonzero}
    .fil1 {fill:#383838;fill-rule:nonzero}
   ]]>
  </style>
 </defs>
 <g id="Plan_x0020_1">
  <metadata id="CorelCorpID_0Corel-Layer"/>
  <g id="_2207765184256">
   <g>
    <polygon class="fil0" points="1.22,1.22 0,1.22 0,0 1.22,0 "/>
   </g>
   <g>
    <path class="fil1" d="M0.79 0.1l-0.48 0c-0.06,0 -0.11,0.05 -0.11,0.1l0 0.82c0,0.05 0.05,0.1 0.11,0.1l0.61 0c0.05,0 0.1,-0.05 0.1,-0.1l0 -0.68 -0.23 -0.24zm0.13 0.92l0 0 -0.61 0 0 -0.82 0.4 0 0 0.21 0.21 0 0 0.61z"/>
    <polygon class="fil1" points="0.71,0.56 0.41,0.56 0.41,0.66 0.71,0.66 "/>
    <polygon class="fil1" points="0.41,0.87 0.81,0.87 0.81,0.76 0.41,0.76 "/>
   </g>
  </g>
 </g>
</svg>
