<?xml version="1.0" encoding="UTF-8"?>
<!DOCTYPE svg PUBLIC "-//W3C//DTD SVG 1.1//EN" "http://www.w3.org/Graphics/SVG/1.1/DTD/svg11.dtd">
<!-- Creator: CorelDRAW 2020 (64-Bit) -->
<svg xmlns="http://www.w3.org/2000/svg" xml:space="preserve" width="100px" height="100px" version="1.1" style="shape-rendering:geometricPrecision; text-rendering:geometricPrecision; image-rendering:optimizeQuality; fill-rule:evenodd; clip-rule:evenodd"
viewBox="0 0 1.69 1.69"
 xmlns:xlink="http://www.w3.org/1999/xlink"
 xmlns:xodm="http://www.corel.com/coreldraw/odm/2003">
 <defs>
  <style type="text/css">
   <![CDATA[
    .fil0 {fill:none;fill-rule:nonzero}
    .fil1 {fill:#383838;fill-rule:nonzero}
   ]]>
  </style>
 </defs>
 <g id="Plan_x0020_1">
  <metadata id="CorelCorpID_0Corel-Layer"/>
  <g id="_1574379102320">
   <g>
    <polygon class="fil0" points="1.69,1.69 0,1.69 0,0 1.69,0 "/>
   </g>
   <g>
    <g>
     <path class="fil1" d="M1.06 1.2c-0.01,0 -0.02,-0.01 -0.03,-0.01 -0.03,-0.01 -0.04,-0.04 -0.04,-0.06l0 -0.14 -0.07 0 0 -0.14 0.14 0c0.04,0 0.07,0.03 0.07,0.07l0 0.07 0.17 -0.13c0.01,-0.01 0.02,-0.01 0.04,-0.01 0.11,0 0.21,-0.1 0.21,-0.22l0 -0.14c0,-0.11 -0.1,-0.21 -0.21,-0.21l-0.42 0c-0.1,0 -0.18,0.07 -0.21,0.16l-0.13 -0.04c0.04,-0.15 0.18,-0.26 0.34,-0.26l0.42 0c0.19,0 0.35,0.16 0.35,0.35l0 0.14c0,0.19 -0.14,0.34 -0.33,0.36l-0.26 0.19c-0.01,0.01 -0.03,0.02 -0.04,0.02z"/>
    </g>
    <g>
     <path class="fil1" d="M0.56 1.13c-0.15,0 -0.28,-0.13 -0.28,-0.28 0,-0.16 0.13,-0.29 0.28,-0.29 0.16,0 0.29,0.13 0.29,0.29 0,0.15 -0.13,0.28 -0.29,0.28zm0 -0.43l0 0c-0.07,0 -0.14,0.07 -0.14,0.15 0,0.07 0.07,0.14 0.14,0.14 0.08,0 0.14,-0.07 0.14,-0.14 0,-0.08 -0.06,-0.15 -0.14,-0.15z"/>
    </g>
    <g>
     <path class="fil1" d="M1.13 1.69l-1.13 0 0 -0.07c0,-0.25 0.23,-0.42 0.56,-0.42 0.34,0 0.57,0.17 0.57,0.42l0 0.07zm-0.98 -0.14l0 0 0.82 0c-0.04,-0.13 -0.19,-0.21 -0.41,-0.21 -0.21,0 -0.37,0.08 -0.41,0.21z"/>
    </g>
   </g>
  </g>
 </g>
</svg>
