<?xml version="1.0" encoding="UTF-8"?>
<!DOCTYPE svg PUBLIC "-//W3C//DTD SVG 1.1//EN" "http://www.w3.org/Graphics/SVG/1.1/DTD/svg11.dtd">
<!-- Creator: CorelDRAW 2020 (64-Bit) -->
<svg xmlns="http://www.w3.org/2000/svg" xml:space="preserve" width="100px" height="100px" version="1.1" style="shape-rendering:geometricPrecision; text-rendering:geometricPrecision; image-rendering:optimizeQuality; fill-rule:evenodd; clip-rule:evenodd"
viewBox="0 0 2.35 2.35"
 xmlns:xlink="http://www.w3.org/1999/xlink"
 xmlns:xodm="http://www.corel.com/coreldraw/odm/2003">
 <defs>
  <style type="text/css">
   <![CDATA[
    .fil0 {fill:none;fill-rule:nonzero}
    .fil1 {fill:#008DD2;fill-rule:nonzero}
   ]]>
  </style>
 </defs>
 <g id="Plan_x0020_1">
  <metadata id="CorelCorpID_0Corel-Layer"/>
  <g id="_2543161205936">
   <g>
    <polygon class="fil0" points="2.35,2.35 0,2.35 0,0 2.35,0 "/>
   </g>
   <g>
    <g>
     <path class="fil1" d="M1.47 1.47l-0.79 0c-0.27,0 -0.48,-0.22 -0.48,-0.49 0,-0.27 0.21,-0.49 0.48,-0.49 0.06,0 0.11,0.01 0.16,0.02 0.1,-0.25 0.35,-0.41 0.63,-0.41 0.37,0 0.68,0.3 0.68,0.68 0,0.38 -0.31,0.69 -0.68,0.69zm-0.79 -0.79l0 0c-0.16,0 -0.29,0.14 -0.29,0.3 0,0.16 0.13,0.29 0.29,0.29l0.79 0c0.27,0 0.48,-0.22 0.48,-0.49 0,-0.27 -0.21,-0.49 -0.48,-0.49 -0.23,0 -0.43,0.16 -0.48,0.38 -0.01,0.03 -0.03,0.06 -0.06,0.07 -0.03,0.01 -0.06,0.01 -0.09,-0.01 -0.05,-0.03 -0.1,-0.05 -0.16,-0.05z"/>
    </g>
    <path class="fil1" d="M1.95 1.66l-1.56 0c-0.05,0 -0.1,0.05 -0.1,0.1l0 0.39c0,0.05 0.05,0.1 0.1,0.1l1.56 0c0.06,0 0.1,-0.05 0.1,-0.1l0 -0.39c0,-0.05 -0.04,-0.1 -0.1,-0.1zm-0.09 0.39l0 0 -0.59 0 0 -0.19 0.59 0 0 0.19z"/>
   </g>
  </g>
 </g>
</svg>
