<?xml version="1.0" encoding="UTF-8"?>
<!DOCTYPE svg PUBLIC "-//W3C//DTD SVG 1.1//EN" "http://www.w3.org/Graphics/SVG/1.1/DTD/svg11.dtd">
<!-- Creator: CorelDRAW 2020 (64-Bit) -->
<svg xmlns="http://www.w3.org/2000/svg" xml:space="preserve" width="100px" height="100px" version="1.1" style="shape-rendering:geometricPrecision; text-rendering:geometricPrecision; image-rendering:optimizeQuality; fill-rule:evenodd; clip-rule:evenodd"
viewBox="0 0 2.37 2.37"
 xmlns:xlink="http://www.w3.org/1999/xlink"
 xmlns:xodm="http://www.corel.com/coreldraw/odm/2003">
 <defs>
  <style type="text/css">
   <![CDATA[
    .fil0 {fill:none;fill-rule:nonzero}
    .fil1 {fill:#008DD2;fill-rule:nonzero}
   ]]>
  </style>
 </defs>
 <g id="Plan_x0020_1">
  <metadata id="CorelCorpID_0Corel-Layer"/>
  <g id="_2094365021632">
   <g>
    <polygon class="fil0" points="2.37,2.37 0,2.37 0,0 2.37,0 "/>
   </g>
   <g>
    <path class="fil1" d="M2.07 1.58c-0.02,0 -0.04,-0.01 -0.05,-0.02l-0.44 -0.29 -0.19 0.13 -0.1 -0.15 0 0.01 -0.18 -0.08 0.09 -0.2 -0.38 -0.31c-0.03,-0.03 -0.04,-0.07 -0.02,-0.11 0.01,-0.04 0.05,-0.07 0.09,-0.07l0.42 0 0.18 -0.43c0.01,-0.04 0.05,-0.06 0.09,-0.06 0.04,0 0.08,0.02 0.09,0.06l0.17 0.43 0.43 0c0.04,0 0.08,0.03 0.09,0.07 0.02,0.04 0,0.08 -0.03,0.11l-0.37 0.31 0.2 0.46c0.02,0.04 0.01,0.09 -0.02,0.12 -0.02,0.01 -0.05,0.02 -0.07,0.02zm-0.49 -0.52l0 0c0.02,0 0.04,0 0.05,0.01l0.22 0.14 -0.1 -0.22c-0.02,-0.04 0,-0.08 0.03,-0.11l0.22 -0.19 -0.22 0c-0.04,0 -0.08,-0.02 -0.1,-0.06l-0.1 -0.27 -0.11 0.27c-0.01,0.04 -0.05,0.06 -0.09,0.06l-0.22 0 0.22 0.19c0.03,0.03 0.04,0.07 0.03,0.11l-0.1 0.22 0.21 -0.14c0.02,-0.01 0.04,-0.01 0.06,-0.01z"/>
   </g>
   <path class="fil1" d="M2.06 1.73c-0.02,-0.03 -0.05,-0.05 -0.09,-0.05l-0.75 0 0.03 -0.03c0.03,-0.03 0.04,-0.08 0.02,-0.12l-0.1 -0.19c-0.02,-0.05 -0.07,-0.07 -0.12,-0.05l-0.47 0.15c-0.01,-0.03 -0.04,-0.06 -0.09,-0.06l-0.39 0c-0.06,0 -0.1,0.05 -0.1,0.1l0 0.79c0,0.05 0.04,0.1 0.1,0.1l0.39 0c0.06,0 0.1,-0.05 0.1,-0.1l1.09 0c0.03,0 0.06,-0.02 0.08,-0.04l0.29 -0.39c0.02,-0.03 0.03,-0.07 0.01,-0.11zm-1.86 0.44l0 0 0 -0.59 0.19 0 0 0.59 -0.19 0zm1.43 -0.1l0 0 -1.04 0 0 -0.42 0.45 -0.15 0.02 0.06 -0.14 0.15c-0.02,0.02 -0.03,0.04 -0.03,0.07l0 0 0 0.09 0.89 0 -0.15 0.2z"/>
  </g>
 </g>
</svg>
