<?xml version="1.0" encoding="UTF-8"?>
<!DOCTYPE svg PUBLIC "-//W3C//DTD SVG 1.1//EN" "http://www.w3.org/Graphics/SVG/1.1/DTD/svg11.dtd">
<!-- Creator: CorelDRAW 2020 (64-Bit) -->
<svg xmlns="http://www.w3.org/2000/svg" xml:space="preserve" width="371px" height="318px" version="1.1" style="shape-rendering:geometricPrecision; text-rendering:geometricPrecision; image-rendering:optimizeQuality; fill-rule:evenodd; clip-rule:evenodd"
viewBox="0 0 50.78 43.61"
 xmlns:xlink="http://www.w3.org/1999/xlink"
 xmlns:xodm="http://www.corel.com/coreldraw/odm/2003">
 <defs>
  <style type="text/css">
   <![CDATA[
    .str2 {stroke:#949494;stroke-width:0.17;stroke-miterlimit:22.9256;stroke-opacity:0.501961}
    .str1 {stroke:#2B2A29;stroke-width:0.32;stroke-miterlimit:22.9256;stroke-opacity:0.501961}
    .str0 {stroke:#ECECEC;stroke-width:0.12;stroke-miterlimit:22.9256}
    .fil3 {fill:none}
    .fil1 {fill:none;fill-rule:nonzero}
    .fil0 {fill:#FEFEFE}
    .fil4 {fill:#2B2A29;fill-rule:nonzero;fill-opacity:0.501961}
    .fil2 {fill:#383838;fill-rule:nonzero;fill-opacity:0.501961}
   ]]>
  </style>
 </defs>
 <g id="Plan_x0020_1">
  <metadata id="CorelCorpID_0Corel-Layer"/>
  <rect class="fil0 str0" x="0.06" y="0.06" width="50.65" height="43.49"/>
  <polygon class="fil1" points="31.16,31.46 29.19,31.46 29.19,29.5 31.16,29.5 "/>
  <path class="fil2" d="M30.83 29.66l-1.31 0c-0.09,0 -0.16,0.08 -0.16,0.17l0 0.81c0,0.09 0.07,0.17 0.16,0.17l0.57 0 0 0.32 -0.41 0 0 0.17 0.99 0 0 -0.17 -0.41 0 0 -0.32 0.57 0c0.09,0 0.16,-0.08 0.16,-0.17l0 -0.81c0,-0.09 -0.07,-0.17 -0.16,-0.17zm0 0.17l0 0 0 0.32 -1.31 0 0 -0.32 1.31 0zm-1.31 0.81l0 0 0 -0.32 1.31 0 0 0.32 -1.31 0z"/>
  <polygon class="fil2" points="30.01,29.91 29.6,29.91 29.6,30.07 30.01,30.07 "/>
  <polygon class="fil2" points="29.6,30.56 30.01,30.56 30.01,30.4 29.6,30.4 "/>
  <path class="fil2" d="M30.83 31.13c-0.05,0 -0.08,0.04 -0.08,0.08 0,0.05 0.03,0.09 0.08,0.09 0.04,0 0.08,-0.04 0.08,-0.09 0,-0.04 -0.04,-0.08 -0.08,-0.08z"/>
  <path class="fil2" d="M29.52 31.13c-0.04,0 -0.08,0.04 -0.08,0.08 0,0.05 0.04,0.09 0.08,0.09 0.05,0 0.08,-0.04 0.08,-0.09 0,-0.04 -0.03,-0.08 -0.08,-0.08z"/>
  <path class="fil2" d="M30.42 30.07c0.05,0 0.08,-0.04 0.08,-0.08 0,-0.05 -0.03,-0.08 -0.08,-0.08 -0.04,0 -0.08,0.03 -0.08,0.08 0,0.04 0.04,0.08 0.08,0.08z"/>
  <path class="fil2" d="M30.67 30.07c0.04,0 0.08,-0.04 0.08,-0.08 0,-0.05 -0.04,-0.08 -0.08,-0.08 -0.05,0 -0.09,0.03 -0.09,0.08 0,0.04 0.04,0.08 0.09,0.08z"/>
  <path class="fil2" d="M30.42 30.4c-0.04,0 -0.08,0.03 -0.08,0.08 0,0.04 0.04,0.08 0.08,0.08 0.05,0 0.08,-0.04 0.08,-0.08 0,-0.05 -0.03,-0.08 -0.08,-0.08z"/>
  <path class="fil2" d="M30.67 30.4c-0.05,0 -0.09,0.03 -0.09,0.08 0,0.04 0.04,0.08 0.09,0.08 0.04,0 0.08,-0.04 0.08,-0.08 0,-0.05 -0.04,-0.08 -0.08,-0.08z"/>
  <polygon class="fil1" points="31.16,33.82 29.19,33.82 29.19,31.86 31.16,31.86 "/>
  <path class="fil2" d="M30.83 32.03l-1.31 0c-0.09,0 -0.16,0.07 -0.16,0.16l0 0.82c0,0.09 0.07,0.16 0.16,0.16l0.57 0 0 0.33 -0.41 0 0 0.16 0.99 0 0 -0.16 -0.41 0 0 -0.33 0.57 0c0.09,0 0.16,-0.07 0.16,-0.16l0 -0.82c0,-0.09 -0.07,-0.16 -0.16,-0.16zm0 0.16l0 0 0 0.33 -1.31 0 0 -0.33 1.31 0zm-1.31 0.82l0 0 0 -0.33 1.31 0 0 0.33 -1.31 0z"/>
  <polygon class="fil2" points="30.01,32.27 29.6,32.27 29.6,32.44 30.01,32.44 "/>
  <polygon class="fil2" points="29.6,32.93 30.01,32.93 30.01,32.76 29.6,32.76 "/>
  <path class="fil2" d="M30.83 33.5c-0.05,0 -0.08,0.03 -0.08,0.08 0,0.04 0.03,0.08 0.08,0.08 0.04,0 0.08,-0.04 0.08,-0.08 0,-0.05 -0.04,-0.08 -0.08,-0.08z"/>
  <path class="fil2" d="M29.52 33.5c-0.04,0 -0.08,0.03 -0.08,0.08 0,0.04 0.04,0.08 0.08,0.08 0.05,0 0.08,-0.04 0.08,-0.08 0,-0.05 -0.03,-0.08 -0.08,-0.08z"/>
  <path class="fil2" d="M30.42 32.44c0.05,0 0.08,-0.04 0.08,-0.09 0,-0.04 -0.03,-0.08 -0.08,-0.08 -0.04,0 -0.08,0.04 -0.08,0.08 0,0.05 0.04,0.09 0.08,0.09z"/>
  <path class="fil2" d="M30.67 32.44c0.04,0 0.08,-0.04 0.08,-0.09 0,-0.04 -0.04,-0.08 -0.08,-0.08 -0.05,0 -0.09,0.04 -0.09,0.08 0,0.05 0.04,0.09 0.09,0.09z"/>
  <path class="fil2" d="M30.42 32.76c-0.04,0 -0.08,0.04 -0.08,0.08 0,0.05 0.04,0.09 0.08,0.09 0.05,0 0.08,-0.04 0.08,-0.09 0,-0.04 -0.03,-0.08 -0.08,-0.08z"/>
  <path class="fil2" d="M30.67 32.76c-0.05,0 -0.09,0.04 -0.09,0.08 0,0.05 0.04,0.09 0.09,0.09 0.04,0 0.08,-0.04 0.08,-0.09 0,-0.04 -0.04,-0.08 -0.08,-0.08z"/>
  <polygon class="fil1" points="31.16,38.55 29.19,38.55 29.19,36.59 31.16,36.59 "/>
  <path class="fil2" d="M30.83 36.76l-1.31 0c-0.09,0 -0.16,0.07 -0.16,0.16l0 0.82c0,0.09 0.07,0.16 0.16,0.16l0.57 0 0 0.33 -0.41 0 0 0.16 0.99 0 0 -0.16 -0.41 0 0 -0.33 0.57 0c0.09,0 0.16,-0.07 0.16,-0.16l0 -0.82c0,-0.09 -0.07,-0.16 -0.16,-0.16zm0 0.16l0 0 0 0.33 -1.31 0 0 -0.33 1.31 0zm-1.31 0.82l0 0 0 -0.33 1.31 0 0 0.33 -1.31 0z"/>
  <polygon class="fil2" points="30.01,37 29.6,37 29.6,37.16 30.01,37.16 "/>
  <polygon class="fil2" points="29.6,37.65 30.01,37.65 30.01,37.49 29.6,37.49 "/>
  <path class="fil2" d="M30.83 38.23c-0.05,0 -0.08,0.03 -0.08,0.08 0,0.04 0.03,0.08 0.08,0.08 0.04,0 0.08,-0.04 0.08,-0.08 0,-0.05 -0.04,-0.08 -0.08,-0.08z"/>
  <path class="fil2" d="M29.52 38.23c-0.04,0 -0.08,0.03 -0.08,0.08 0,0.04 0.04,0.08 0.08,0.08 0.05,0 0.08,-0.04 0.08,-0.08 0,-0.05 -0.03,-0.08 -0.08,-0.08z"/>
  <path class="fil2" d="M30.42 37.16c0.05,0 0.08,-0.03 0.08,-0.08 0,-0.04 -0.03,-0.08 -0.08,-0.08 -0.04,0 -0.08,0.04 -0.08,0.08 0,0.05 0.04,0.08 0.08,0.08z"/>
  <path class="fil2" d="M30.67 37.16c0.04,0 0.08,-0.03 0.08,-0.08 0,-0.04 -0.04,-0.08 -0.08,-0.08 -0.05,0 -0.09,0.04 -0.09,0.08 0,0.05 0.04,0.08 0.09,0.08z"/>
  <path class="fil2" d="M30.42 37.49c-0.04,0 -0.08,0.04 -0.08,0.08 0,0.05 0.04,0.08 0.08,0.08 0.05,0 0.08,-0.03 0.08,-0.08 0,-0.04 -0.03,-0.08 -0.08,-0.08z"/>
  <path class="fil2" d="M30.67 37.49c-0.05,0 -0.09,0.04 -0.09,0.08 0,0.05 0.04,0.08 0.09,0.08 0.04,0 0.08,-0.03 0.08,-0.08 0,-0.04 -0.04,-0.08 -0.08,-0.08z"/>
  <polygon class="fil1" points="31.16,36.19 29.19,36.19 29.19,34.23 31.16,34.23 "/>
  <path class="fil2" d="M30.83 34.39l-1.31 0c-0.09,0 -0.16,0.07 -0.16,0.16l0 0.82c0,0.09 0.07,0.16 0.16,0.16l0.57 0 0 0.33 -0.41 0 0 0.16 0.99 0 0 -0.16 -0.41 0 0 -0.33 0.57 0c0.09,0 0.16,-0.07 0.16,-0.16l0 -0.82c0,-0.09 -0.07,-0.16 -0.16,-0.16zm0 0.16l0 0 0 0.33 -1.31 0 0 -0.33 1.31 0zm-1.31 0.82l0 0 0 -0.33 1.31 0 0 0.33 -1.31 0z"/>
  <polygon class="fil2" points="30.01,34.64 29.6,34.64 29.6,34.8 30.01,34.8 "/>
  <polygon class="fil2" points="29.6,35.29 30.01,35.29 30.01,35.13 29.6,35.13 "/>
  <path class="fil2" d="M30.83 35.86c-0.05,0 -0.08,0.04 -0.08,0.08 0,0.05 0.03,0.08 0.08,0.08 0.04,0 0.08,-0.03 0.08,-0.08 0,-0.04 -0.04,-0.08 -0.08,-0.08z"/>
  <path class="fil2" d="M29.52 35.86c-0.04,0 -0.08,0.04 -0.08,0.08 0,0.05 0.04,0.08 0.08,0.08 0.05,0 0.08,-0.03 0.08,-0.08 0,-0.04 -0.03,-0.08 -0.08,-0.08z"/>
  <path class="fil2" d="M30.42 34.8c0.05,0 0.08,-0.04 0.08,-0.08 0,-0.05 -0.03,-0.08 -0.08,-0.08 -0.04,0 -0.08,0.03 -0.08,0.08 0,0.04 0.04,0.08 0.08,0.08z"/>
  <path class="fil2" d="M30.67 34.8c0.04,0 0.08,-0.04 0.08,-0.08 0,-0.05 -0.04,-0.08 -0.08,-0.08 -0.05,0 -0.09,0.03 -0.09,0.08 0,0.04 0.04,0.08 0.09,0.08z"/>
  <path class="fil2" d="M30.42 35.13c-0.04,0 -0.08,0.03 -0.08,0.08 0,0.04 0.04,0.08 0.08,0.08 0.05,0 0.08,-0.04 0.08,-0.08 0,-0.05 -0.03,-0.08 -0.08,-0.08z"/>
  <path class="fil2" d="M30.67 35.13c-0.05,0 -0.09,0.03 -0.09,0.08 0,0.04 0.04,0.08 0.09,0.08 0.04,0 0.08,-0.04 0.08,-0.08 0,-0.05 -0.04,-0.08 -0.08,-0.08z"/>
  <line class="fil3 str1" x1="3.69" y1="28.35" x2="9.61" y2= "28.35" />
  <line class="fil3 str2" x1="3.69" y1="29.56" x2="13.56" y2= "29.56" />
  <polygon class="fil4" points="3.69,36.41 5.55,36.41 5.55,37.7 3.69,37.7 "/>
  <line class="fil3 str2" x1="3.69" y1="38.97" x2="6.8" y2= "38.97" />
  <line class="fil3 str2" x1="3.69" y1="39.84" x2="7.5" y2= "39.84" />
  <line class="fil3 str2" x1="32.33" y1="30.38" x2="43.06" y2= "30.38" />
  <line class="fil3 str2" x1="3.69" y1="30.77" x2="16.3" y2= "30.77" />
  <line class="fil3 str2" x1="32.33" y1="32.81" x2="46.04" y2= "32.81" />
  <line class="fil3 str2" x1="3.69" y1="31.97" x2="18.71" y2= "31.97" />
  <line class="fil3 str2" x1="3.69" y1="33.18" x2="11.81" y2= "33.18" />
  <line class="fil3 str2" x1="32.33" y1="35.22" x2="39.69" y2= "35.22" />
  <line class="fil3 str2" x1="32.33" y1="37.64" x2="42.46" y2= "37.64" />
  <polygon class="fil4" points="9.7,36.41 11.55,36.41 11.55,37.7 9.7,37.7 "/>
  <line class="fil3 str2" x1="9.7" y1="38.97" x2="12.8" y2= "38.97" />
  <line class="fil3 str2" x1="9.7" y1="39.84" x2="13.51" y2= "39.84" />
  <line class="fil3 str1" x1="29.42" y1="28.35" x2="34.72" y2= "28.35" />
 </g>
</svg>
