<?xml version="1.0" encoding="UTF-8"?>
<!DOCTYPE svg PUBLIC "-//W3C//DTD SVG 1.1//EN" "http://www.w3.org/Graphics/SVG/1.1/DTD/svg11.dtd">
<!-- Creator: CorelDRAW 2020 (64-Bit) -->
<svg xmlns="http://www.w3.org/2000/svg" xml:space="preserve" width="100px" height="100px" version="1.1" style="shape-rendering:geometricPrecision; text-rendering:geometricPrecision; image-rendering:optimizeQuality; fill-rule:evenodd; clip-rule:evenodd"
viewBox="0 0 2.37 2.37"
 xmlns:xlink="http://www.w3.org/1999/xlink"
 xmlns:xodm="http://www.corel.com/coreldraw/odm/2003">
 <defs>
  <style type="text/css">
   <![CDATA[
    .fil0 {fill:none;fill-rule:nonzero}
    .fil1 {fill:#008DD2;fill-rule:nonzero}
   ]]>
  </style>
 </defs>
 <g id="Plan_x0020_1">
  <metadata id="CorelCorpID_0Corel-Layer"/>
  <g id="_2093528435552">
   <g>
    <polygon class="fil0" points="2.37,2.37 0,2.37 0,0 2.37,0 "/>
   </g>
   <g>
    <g>
     <path class="fil1" d="M1.78 1.09l-0.4 0c-0.05,0 -0.1,-0.05 -0.1,-0.1l0 -0.6 0.2 0 0 0.5 0.3 0 0 0.2z"/>
    </g>
    <path class="fil1" d="M0.65 1.28c-0.04,-0.09 -0.06,-0.19 -0.06,-0.29 0,-0.44 0.36,-0.79 0.79,-0.79 0.44,0 0.79,0.35 0.79,0.79 0,0.18 -0.06,0.35 -0.17,0.49l0.23 0c0.09,-0.15 0.14,-0.31 0.14,-0.49 0,-0.55 -0.44,-0.99 -0.99,-0.99 -0.54,0 -0.99,0.44 -0.99,0.99 0,0.1 0.02,0.2 0.05,0.29l0.21 0z"/>
    <path class="fil1" d="M2.06 1.73c-0.02,-0.03 -0.05,-0.05 -0.09,-0.05l-0.75 0 0.03 -0.03c0.03,-0.03 0.04,-0.08 0.02,-0.12l-0.1 -0.19c-0.02,-0.05 -0.07,-0.07 -0.12,-0.05l-0.47 0.15c-0.01,-0.03 -0.04,-0.06 -0.09,-0.06l-0.39 0c-0.06,0 -0.1,0.05 -0.1,0.1l0 0.79c0,0.05 0.04,0.1 0.1,0.1l0.39 0c0.06,0 0.1,-0.05 0.1,-0.1l1.09 0c0.03,0 0.06,-0.02 0.08,-0.04l0.29 -0.39c0.02,-0.03 0.03,-0.07 0.01,-0.11zm-1.86 0.44l0 0 0 -0.59 0.19 0 0 0.59 -0.19 0zm1.43 -0.1l0 0 -1.04 0 0 -0.42 0.45 -0.15 0.02 0.06 -0.14 0.15c-0.02,0.02 -0.03,0.04 -0.03,0.07l0 0 0 0.09 0.89 0 -0.15 0.2z"/>
   </g>
  </g>
 </g>
</svg>
