<?xml version="1.0" encoding="UTF-8"?>
<!DOCTYPE svg PUBLIC "-//W3C//DTD SVG 1.1//EN" "http://www.w3.org/Graphics/SVG/1.1/DTD/svg11.dtd">
<!-- Creator: CorelDRAW 2020 (64-Bit) -->
<svg xmlns="http://www.w3.org/2000/svg" xml:space="preserve" width="100px" height="100px" version="1.1" style="shape-rendering:geometricPrecision; text-rendering:geometricPrecision; image-rendering:optimizeQuality; fill-rule:evenodd; clip-rule:evenodd"
viewBox="0 0 3.68 3.68"
 xmlns:xlink="http://www.w3.org/1999/xlink"
 xmlns:xodm="http://www.corel.com/coreldraw/odm/2003">
 <defs>
  <style type="text/css">
   <![CDATA[
    .fil0 {fill:none;fill-rule:nonzero}
    .fil1 {fill:#008DD2;fill-rule:nonzero}
   ]]>
  </style>
 </defs>
 <g id="Plan_x0020_1">
  <metadata id="CorelCorpID_0Corel-Layer"/>
  <g id="_2093312001792">
   <g>
    <polygon class="fil0" points="3.68,3.68 0,3.68 0,0 3.68,0 "/>
   </g>
   <path class="fil1" d="M1.84 0c-1.02,0 -1.84,0.82 -1.84,1.84 0,1.01 0.82,1.84 1.84,1.84 1.01,0 1.84,-0.83 1.84,-1.84 0,-1.02 -0.83,-1.84 -1.84,-1.84zm1.52 1.96l0 0 -0.3 -0.05c-0.02,-0.08 -0.06,-0.16 -0.11,-0.22l0.28 -0.49c0.09,0.2 0.14,0.41 0.14,0.64 0,0.04 0,0.08 -0.01,0.12zm-0.31 -1.06l0 0 -0.36 0.64c-0.03,0 -0.06,-0.01 -0.09,-0.01 -0.07,0 -0.13,0.02 -0.19,0.05l-0.31 -0.31c0.03,-0.06 0.04,-0.13 0.04,-0.2 0,-0.07 -0.01,-0.13 -0.04,-0.19l0.41 -0.42c0.21,0.11 0.4,0.26 0.54,0.44zm-0.86 -0.55l0 0 -0.31 0.31c-0.06,-0.03 -0.12,-0.05 -0.19,-0.05 -0.16,0 -0.29,0.08 -0.38,0.2l-0.46 -0.14c0.26,-0.22 0.61,-0.36 0.99,-0.36 0.12,0 0.24,0.01 0.35,0.04zm-1.58 0.58l0 0 0.62 0.17c0.01,0.24 0.21,0.43 0.46,0.43 0.07,0 0.13,-0.02 0.19,-0.04l0.31 0.3c-0.03,0.06 -0.04,0.13 -0.04,0.19l-0.56 0.19c-0.09,-0.11 -0.22,-0.18 -0.36,-0.18 -0.06,0 -0.12,0.01 -0.17,0.03l-0.64 -0.74 -0.01 0.01c0.05,-0.13 0.12,-0.25 0.2,-0.36zm-0.3 0.91l0 0c0,-0.07 0,-0.14 0.01,-0.21l0.51 0.59c-0.04,0.07 -0.06,0.15 -0.06,0.23 0,0.14 0.06,0.26 0.15,0.35l-0.08 0.2c-0.33,-0.28 -0.53,-0.7 -0.53,-1.16zm0.79 1.34l0 0 0.11 -0.27c0,0 0.01,0 0.02,0 0.25,0 0.45,-0.2 0.45,-0.45l0.56 -0.19c0.05,0.06 0.1,0.1 0.16,0.13l-0.09 0.9c-0.15,0.04 -0.31,0.07 -0.47,0.07 -0.27,0 -0.52,-0.07 -0.74,-0.19zm1.53 -0.03l0 0 0.08 -0.71c0.13,-0.03 0.23,-0.11 0.29,-0.23l0.31 0.05c-0.11,0.38 -0.35,0.69 -0.68,0.89z"/>
  </g>
 </g>
</svg>
