<?xml version="1.0" encoding="UTF-8"?>
<!DOCTYPE svg PUBLIC "-//W3C//DTD SVG 1.1//EN" "http://www.w3.org/Graphics/SVG/1.1/DTD/svg11.dtd">
<!-- Creator: CorelDRAW 2020 (64-Bit) -->
<svg xmlns="http://www.w3.org/2000/svg" xml:space="preserve" width="400px" height="400px" version="1.1" style="shape-rendering:geometricPrecision; text-rendering:geometricPrecision; image-rendering:optimizeQuality; fill-rule:evenodd; clip-rule:evenodd"
viewBox="0 0 54.55 54.55"
 xmlns:xlink="http://www.w3.org/1999/xlink"
 xmlns:xodm="http://www.corel.com/coreldraw/odm/2003">
 <defs>
  <style type="text/css">
   <![CDATA[
    .fil0 {fill:none;fill-rule:nonzero}
    .fil1 {fill:#008DD2;fill-rule:nonzero}
   ]]>
  </style>
 </defs>
 <g id="Plan_x0020_1">
  <metadata id="CorelCorpID_0Corel-Layer"/>
  <g id="_2543165493664">
   <g>
    <polygon class="fil0" points="54.55,54.55 0,54.55 0,0 54.55,0 "/>
   </g>
   <g>
    <path class="fil1" d="M47.73 54.55l-12.12 -9.09 -7.2 0c-1.88,0 -3.41,-1.53 -3.41,-3.41l0 -15.91c0,-1.88 1.53,-3.41 3.41,-3.41l22.73 0c1.88,0 3.41,1.53 3.41,3.41l0 15.91c0,1.88 -1.53,3.41 -3.41,3.41l-3.41 0 0 9.09zm-18.18 -13.64l0 0 7.58 0 6.06 4.55 0 -4.55 6.82 0 0 -13.63 -20.46 0 0 13.63z"/>
   </g>
   <g>
    <path class="fil1" d="M6.82 45.46l0 -9.09 -3.41 0c-1.88,0 -3.41,-1.53 -3.41,-3.41l0 -25c0,-1.88 1.53,-3.41 3.41,-3.41l29.55 0c1.88,0 3.41,1.53 3.41,3.41l0 10.22 -4.55 0 0 -9.09 -27.27 0 0 22.73 6.81 0 0 4.55 6.07 -4.55 3.03 0 0 4.55 -1.52 0 -12.12 9.09z"/>
   </g>
  </g>
 </g>
</svg>
