<?xml version="1.0" encoding="UTF-8"?>
<!DOCTYPE svg PUBLIC "-//W3C//DTD SVG 1.1//EN" "http://www.w3.org/Graphics/SVG/1.1/DTD/svg11.dtd">
<!-- Creator: CorelDRAW 2020 (64-Bit) -->
<svg xmlns="http://www.w3.org/2000/svg" xml:space="preserve" width="100px" height="100px" version="1.1" style="shape-rendering:geometricPrecision; text-rendering:geometricPrecision; image-rendering:optimizeQuality; fill-rule:evenodd; clip-rule:evenodd"
viewBox="0 0 2.38 2.38"
 xmlns:xlink="http://www.w3.org/1999/xlink"
 xmlns:xodm="http://www.corel.com/coreldraw/odm/2003">
 <defs>
  <style type="text/css">
   <![CDATA[
    .fil0 {fill:none;fill-rule:nonzero}
    .fil1 {fill:#008DD2;fill-rule:nonzero}
   ]]>
  </style>
 </defs>
 <g id="Plan_x0020_1">
  <metadata id="CorelCorpID_0Corel-Layer"/>
  <g id="_2093549711984">
   <g>
    <polygon class="fil0" points="2.38,2.38 0,2.38 0,0 2.38,0 "/>
   </g>
   <g>
    <path class="fil1" d="M2.28 0.3l-1.88 0c-0.06,0 -0.1,0.04 -0.1,0.1l0 0.1 1.88 0 0 0.99 -0.79 0 0 0.19 0.79 0 0 0.1 -0.79 0c-0.06,0 -0.1,0.05 -0.1,0.1l0 0.3 -0.3 0 0 0.2 0.79 0 0 -0.2 -0.29 0 0 -0.2 0.79 0c0.05,0 0.1,-0.04 0.1,-0.1l0 -1.48c0,-0.06 -0.05,-0.1 -0.1,-0.1z"/>
    <path class="fil1" d="M0.89 1.78l0 0.2 0.1 0c0.11,0 0.2,-0.09 0.2,-0.2l0 -0.99c0,-0.11 -0.09,-0.2 -0.2,-0.2l-0.69 0c-0.11,0 -0.2,0.09 -0.2,0.2l0 0.3 0.89 0 0 0.4 -0.1 0 0 0.19 0.1 0 0 0.1 -0.1 0zm-0.59 -0.89l0 0 0 -0.1 0.69 0 0 0.1 -0.69 0z"/>
    <path class="fil1" d="M0.59 1.19l-0.39 0c-0.11,0 -0.2,0.09 -0.2,0.2l0 0.79c0,0.11 0.09,0.2 0.2,0.2l0.39 0c0.11,0 0.2,-0.09 0.2,-0.2l0 -0.79c0,-0.11 -0.09,-0.2 -0.2,-0.2zm0 0.2l0 0 0 0.49 -0.39 0 0 -0.49 0.39 0zm-0.39 0.79l0 0 0 -0.1 0.39 0 0 0.1 -0.39 0z"/>
   </g>
  </g>
 </g>
</svg>
