<?xml version="1.0" encoding="UTF-8"?>
<!DOCTYPE svg PUBLIC "-//W3C//DTD SVG 1.1//EN" "http://www.w3.org/Graphics/SVG/1.1/DTD/svg11.dtd">
<!-- Creator: CorelDRAW 2020 (64-Bit) -->
<svg xmlns="http://www.w3.org/2000/svg" xml:space="preserve" width="100px" height="100px" version="1.1" style="shape-rendering:geometricPrecision; text-rendering:geometricPrecision; image-rendering:optimizeQuality; fill-rule:evenodd; clip-rule:evenodd"
viewBox="0 0 3.04 3.04"
 xmlns:xlink="http://www.w3.org/1999/xlink"
 xmlns:xodm="http://www.corel.com/coreldraw/odm/2003">
 <defs>
  <style type="text/css">
   <![CDATA[
    .fil0 {fill:none;fill-rule:nonzero}
    .fil1 {fill:#008DD2;fill-rule:nonzero}
   ]]>
  </style>
 </defs>
 <g id="Plan_x0020_1">
  <metadata id="CorelCorpID_0Corel-Layer"/>
  <g id="_2543403004832">
   <g>
    <polygon class="fil0" points="3.04,3.04 0,3.04 0,0 3.04,0 "/>
   </g>
   <g>
    <path class="fil1" d="M1.52 1.52l-0.89 0c-0.21,0 -0.38,-0.17 -0.38,-0.38 0,-0.21 0.17,-0.38 0.38,-0.38 0.08,0 0.15,0.02 0.21,0.06 0.03,0.02 0.08,0.03 0.11,0.01 0.04,-0.01 0.07,-0.05 0.08,-0.09 0.07,-0.29 0.32,-0.49 0.62,-0.49 0.35,0 0.63,0.29 0.63,0.64 0,0.09 -0.02,0.17 -0.05,0.25l0.26 0c0.03,-0.08 0.04,-0.17 0.04,-0.25 0,-0.49 -0.4,-0.89 -0.88,-0.89 -0.37,0 -0.68,0.22 -0.82,0.54 -0.06,-0.02 -0.13,-0.03 -0.2,-0.03 -0.35,0 -0.63,0.28 -0.63,0.63 0,0.35 0.28,0.63 0.63,0.63l0.89 0 0 -0.25z"/>
    <g>
     <path class="fil1" d="M2.91 1.9c0,-0.28 -0.23,-0.51 -0.5,-0.51 -0.28,0 -0.51,0.23 -0.51,0.51 -0.07,0 -0.13,0.06 -0.13,0.13l0 0.88c0,0.07 0.06,0.13 0.13,0.13l1.01 0c0.07,0 0.13,-0.06 0.13,-0.13l0 -0.88c0,-0.07 -0.06,-0.13 -0.13,-0.13zm-0.5 -0.25l0 0c0.14,0 0.25,0.11 0.25,0.25l-0.51 0c0,-0.14 0.12,-0.25 0.26,-0.25zm0.38 1.14l0 0 -0.76 0 0 -0.64 0.76 0 0 0.64z"/>
     <path class="fil1" d="M2.53 2.41c0,0.07 -0.05,0.12 -0.12,0.12 -0.07,0 -0.13,-0.05 -0.13,-0.12 0,-0.07 0.06,-0.13 0.13,-0.13 0.07,0 0.12,0.06 0.12,0.13z"/>
    </g>
   </g>
  </g>
 </g>
</svg>
