<?xml version="1.0" encoding="UTF-8"?>
<!DOCTYPE svg PUBLIC "-//W3C//DTD SVG 1.1//EN" "http://www.w3.org/Graphics/SVG/1.1/DTD/svg11.dtd">
<!-- Creator: CorelDRAW 2020 (64-Bit) -->
<svg xmlns="http://www.w3.org/2000/svg" xml:space="preserve" width="100px" height="100px" version="1.1" style="shape-rendering:geometricPrecision; text-rendering:geometricPrecision; image-rendering:optimizeQuality; fill-rule:evenodd; clip-rule:evenodd"
viewBox="0 0 2.38 2.38"
 xmlns:xlink="http://www.w3.org/1999/xlink"
 xmlns:xodm="http://www.corel.com/coreldraw/odm/2003">
 <defs>
  <style type="text/css">
   <![CDATA[
    .fil0 {fill:none;fill-rule:nonzero}
    .fil1 {fill:#008DD2;fill-rule:nonzero}
   ]]>
  </style>
 </defs>
 <g id="Plan_x0020_1">
  <metadata id="CorelCorpID_0Corel-Layer"/>
  <g id="_2093002415360">
   <g>
    <polygon class="fil0" points="2.38,2.38 0,2.38 0,0 2.38,0 "/>
   </g>
   <g>
    <g>
     <polygon class="fil1" points="0.3,0.5 0.79,0.5 0.79,0.3 0.3,0.3 "/>
    </g>
    <g>
     <polygon class="fil1" points="0.3,1.09 0.79,1.09 0.79,0.89 0.3,0.89 "/>
    </g>
    <g>
     <polygon class="fil1" points="0.3,1.68 0.79,1.68 0.79,1.49 0.3,1.49 "/>
    </g>
    <g>
     <path class="fil1" d="M1.39 0.4c0,0.05 -0.05,0.1 -0.1,0.1 -0.06,0 -0.1,-0.05 -0.1,-0.1 0,-0.06 0.04,-0.1 0.1,-0.1 0.05,0 0.1,0.04 0.1,0.1z"/>
    </g>
    <g>
     <path class="fil1" d="M1.68 0.4c0,0.05 -0.04,0.1 -0.1,0.1 -0.05,0 -0.09,-0.05 -0.09,-0.1 0,-0.06 0.04,-0.1 0.09,-0.1 0.06,0 0.1,0.04 0.1,0.1z"/>
    </g>
    <g>
     <path class="fil1" d="M1.39 0.99c0,0.06 -0.05,0.1 -0.1,0.1 -0.06,0 -0.1,-0.04 -0.1,-0.1 0,-0.05 0.04,-0.1 0.1,-0.1 0.05,0 0.1,0.05 0.1,0.1z"/>
    </g>
    <g>
     <path class="fil1" d="M1.68 0.99c0,0.06 -0.04,0.1 -0.1,0.1 -0.05,0 -0.09,-0.04 -0.09,-0.1 0,-0.05 0.04,-0.1 0.09,-0.1 0.06,0 0.1,0.05 0.1,0.1z"/>
    </g>
    <path class="fil1" d="M1.19 1.78l-0.99 0 0 -0.39 1.78 0 0 -1.19c0,-0.11 -0.09,-0.2 -0.2,-0.2l-1.58 0c-0.11,0 -0.2,0.09 -0.2,0.2l0 1.58c0,0.11 0.09,0.2 0.2,0.2l0.99 0 0 -0.2zm-0.99 -1.58l0 0 1.58 0 0 0.39 -1.58 0 0 -0.39zm0 0.59l0 0 1.58 0 0 0.4 -1.58 0 0 -0.4z"/>
    <g>
     <g>
      <polygon class="fil1" points="1.78,2.32 1.42,1.95 1.56,1.81 1.78,2.04 2.21,1.61 2.35,1.75 "/>
     </g>
    </g>
   </g>
  </g>
 </g>
</svg>
